<svg version="1.1" id="Layer_1" xmlns="http://www.w3.org/2000/svg" xmlns:xlink="http://www.w3.org/1999/xlink" x="0px" y="0px"
	 width="100%" viewBox="0 0 249 249" enable-background="new 0 0 249 249" xml:space="preserve">
<path fill="#FFFFFF" opacity="1.000000" stroke="none" 
	d="
M164.000000,250.000000 
	C109.333336,250.000000 55.166672,250.000000 1.000007,250.000000 
	C1.000005,167.000015 1.000005,84.000015 1.000002,1.000018 
	C83.999985,1.000012 166.999969,1.000012 249.999969,1.000006 
	C249.999969,83.999977 249.999969,166.999954 249.999985,249.999969 
	C221.500000,250.000000 193.000000,250.000000 164.000000,250.000000 
M109.072350,18.439295 
	C107.448341,18.644333 105.794769,18.717466 104.204674,19.073822 
	C70.032356,26.732185 44.208557,45.652794 28.141762,76.880455 
	C17.798948,96.982918 14.979557,118.541000 17.907318,141.026428 
	C20.937374,164.297485 30.898678,184.122406 46.698044,201.076859 
	C56.400494,211.488647 68.067055,219.294479 81.155663,225.097153 
	C103.638794,235.064774 127.027313,236.964005 150.603317,231.492935 
	C179.344727,224.823135 201.680298,208.388687 217.409515,183.197479 
	C232.745361,158.636215 237.488266,131.953995 231.732361,103.874176 
	C225.868500,75.267776 210.503448,52.385105 186.240585,35.759342 
	C172.242050,26.167053 156.728470,20.117796 139.979996,18.220226 
	C130.075516,17.098068 119.935196,18.057352 109.072350,18.439295 
z"/>
<path fill="#7AC047" opacity="1.000000" stroke="none" 
	d="
M109.486641,18.259968 
	C119.935196,18.057352 130.075516,17.098068 139.979996,18.220226 
	C156.728470,20.117796 172.242050,26.167053 186.240585,35.759342 
	C210.503448,52.385105 225.868500,75.267776 231.732361,103.874176 
	C237.488266,131.953995 232.745361,158.636215 217.409515,183.197479 
	C201.680298,208.388687 179.344727,224.823135 150.603317,231.492935 
	C127.027313,236.964005 103.638794,235.064774 81.155663,225.097153 
	C68.067055,219.294479 56.400494,211.488647 46.698044,201.076859 
	C30.898678,184.122406 20.937374,164.297485 17.907318,141.026428 
	C14.979557,118.541000 17.798948,96.982918 28.141762,76.880455 
	C44.208557,45.652794 70.032356,26.732185 104.204674,19.073822 
	C105.794769,18.717466 107.448341,18.644333 109.486641,18.259968 
M71.846535,82.751450 
	C69.555351,86.086510 66.583511,89.146027 65.100891,92.808403 
	C60.694645,103.692795 62.833439,114.384987 67.356491,124.762138 
	C72.251297,135.992203 77.246788,147.178360 82.147339,158.405930 
	C86.118820,167.504898 89.528053,176.890167 94.099487,185.673340 
	C97.699478,192.590057 104.830551,193.256073 109.905609,187.421753 
	C115.433159,181.067276 120.194511,174.046310 125.403046,167.166458 
	C125.686951,167.413971 126.276619,167.754013 126.626740,168.259857 
	C130.808426,174.301651 134.770004,180.505798 139.161224,186.389786 
	C143.651413,192.406372 150.880402,192.804413 154.716843,187.670700 
	C157.437943,184.029449 160.066437,180.157059 161.853073,176.007568 
	C169.402634,158.473541 176.653366,140.810303 183.948242,123.167397 
	C187.925125,113.549171 189.834518,103.749008 186.009064,93.559952 
	C184.120499,88.529724 181.174118,84.342773 176.694382,81.163925 
	C183.788361,96.076775 181.059906,110.033241 174.536514,124.232674 
	C169.241043,135.759293 165.218948,147.871948 160.658386,159.734787 
	C157.742081,167.320618 155.301239,175.127609 151.830078,182.447952 
	C149.592545,187.166687 146.243958,187.434586 143.094955,183.435669 
	C138.048523,177.027222 133.567871,170.166260 129.028931,163.375687 
	C128.562225,162.677460 128.957794,160.878204 129.577789,160.067368 
	C132.569260,156.154938 135.819595,152.441986 138.895340,148.592133 
	C146.675110,138.854401 154.922180,129.436279 162.012909,119.217636 
	C168.483643,109.892487 172.450684,99.348938 168.937317,87.630234 
	C166.463593,79.379227 161.744003,72.797890 153.094299,70.119781 
	C144.308701,67.399574 137.092331,70.529343 130.794342,76.673996 
	C127.839035,79.557335 125.034676,82.773514 121.591331,84.926163 
	C118.432655,86.900833 114.507057,87.648727 111.357330,88.779861 
	C119.062500,89.347771 120.824295,88.436729 131.002975,80.554436 
	C144.075439,70.431221 158.375458,74.551636 162.146530,90.864456 
	C164.754349,102.145340 160.911728,111.803841 154.816757,120.420555 
	C145.687912,133.326370 135.549515,145.518082 125.454567,158.510208 
	C123.908180,156.723221 122.769958,155.502075 121.736115,154.198166 
	C114.198990,144.692108 106.628220,135.211945 99.175575,125.639893 
	C91.853127,116.235100 86.412956,106.187225 87.957039,93.579292 
	C89.271294,82.848045 96.533615,71.904915 110.480194,75.977646 
	C112.858238,76.672104 115.243576,77.341545 118.084198,78.153664 
	C114.226532,68.991600 100.056923,66.059982 91.500679,73.088707 
	C81.689842,81.148048 78.362228,91.720711 81.505447,103.881531 
	C84.869324,116.896072 93.180122,127.130341 101.655060,137.183044 
	C108.006340,144.716751 114.272881,152.323654 120.449234,160.000900 
	C121.226463,160.966995 121.952988,163.020264 121.467247,163.791046 
	C117.461067,170.148010 113.544640,176.628754 108.842430,182.460312 
	C104.440590,187.919373 100.721245,187.187469 97.552376,181.036697 
	C96.359352,178.721054 95.202194,176.333862 94.452782,173.851257 
	C88.975388,155.705994 82.701073,137.903259 74.573639,120.712135 
	C71.863739,114.980141 70.502678,108.193054 70.272308,101.825089 
	C70.047676,95.615555 72.056152,89.325233 73.613235,82.821045 
	C73.659050,82.379105 73.704865,81.937172 73.750679,81.495224 
	C73.292442,81.776596 72.834206,82.057968 71.846535,82.751450 
z"/>
<path fill="#FFFFFF" opacity="1.000000" stroke="none" 
	d="
M73.084229,83.070381 
	C72.056152,89.325233 70.047676,95.615555 70.272308,101.825089 
	C70.502678,108.193054 71.863739,114.980141 74.573639,120.712135 
	C82.701073,137.903259 88.975388,155.705994 94.452782,173.851257 
	C95.202194,176.333862 96.359352,178.721054 97.552376,181.036697 
	C100.721245,187.187469 104.440590,187.919373 108.842430,182.460312 
	C113.544640,176.628754 117.461067,170.148010 121.467247,163.791046 
	C121.952988,163.020264 121.226463,160.966995 120.449234,160.000900 
	C114.272881,152.323654 108.006340,144.716751 101.655060,137.183044 
	C93.180122,127.130341 84.869324,116.896072 81.505447,103.881531 
	C78.362228,91.720711 81.689842,81.148048 91.500679,73.088707 
	C100.056923,66.059982 114.226532,68.991600 118.084198,78.153664 
	C115.243576,77.341545 112.858238,76.672104 110.480194,75.977646 
	C96.533615,71.904915 89.271294,82.848045 87.957039,93.579292 
	C86.412956,106.187225 91.853127,116.235100 99.175575,125.639893 
	C106.628220,135.211945 114.198990,144.692108 121.736115,154.198166 
	C122.769958,155.502075 123.908180,156.723221 125.454567,158.510208 
	C135.549515,145.518082 145.687912,133.326370 154.816757,120.420555 
	C160.911728,111.803841 164.754349,102.145340 162.146530,90.864456 
	C158.375458,74.551636 144.075439,70.431221 131.002975,80.554436 
	C120.824295,88.436729 119.062500,89.347771 111.357330,88.779861 
	C114.507057,87.648727 118.432655,86.900833 121.591331,84.926163 
	C125.034676,82.773514 127.839035,79.557335 130.794342,76.673996 
	C137.092331,70.529343 144.308701,67.399574 153.094299,70.119781 
	C161.744003,72.797890 166.463593,79.379227 168.937317,87.630234 
	C172.450684,99.348938 168.483643,109.892487 162.012909,119.217636 
	C154.922180,129.436279 146.675110,138.854401 138.895340,148.592133 
	C135.819595,152.441986 132.569260,156.154938 129.577789,160.067368 
	C128.957794,160.878204 128.562225,162.677460 129.028931,163.375687 
	C133.567871,170.166260 138.048523,177.027222 143.094955,183.435669 
	C146.243958,187.434586 149.592545,187.166687 151.830078,182.447952 
	C155.301239,175.127609 157.742081,167.320618 160.658386,159.734787 
	C165.218948,147.871948 169.241043,135.759293 174.536514,124.232674 
	C181.059906,110.033241 183.788361,96.076775 176.694382,81.163925 
	C181.174118,84.342773 184.120499,88.529724 186.009064,93.559952 
	C189.834518,103.749008 187.925125,113.549171 183.948242,123.167397 
	C176.653366,140.810303 169.402634,158.473541 161.853073,176.007568 
	C160.066437,180.157059 157.437943,184.029449 154.716843,187.670700 
	C150.880402,192.804413 143.651413,192.406372 139.161224,186.389786 
	C134.770004,180.505798 130.808426,174.301651 126.626740,168.259857 
	C126.276619,167.754013 125.686951,167.413971 125.403046,167.166458 
	C120.194511,174.046310 115.433159,181.067276 109.905609,187.421753 
	C104.830551,193.256073 97.699478,192.590057 94.099487,185.673340 
	C89.528053,176.890167 86.118820,167.504898 82.147339,158.405930 
	C77.246788,147.178360 72.251297,135.992203 67.356491,124.762138 
	C62.833439,114.384987 60.694645,103.692795 65.100891,92.808403 
	C66.583511,89.146027 69.555351,86.086510 72.274429,82.741615 
	C72.829620,82.844643 72.956924,82.957512 73.084229,83.070381 
z"/>
<path fill="#FFFFFF" opacity="1.000000" stroke="none" 
	d="
M72.539154,82.535553 
	C72.834206,82.057968 73.292442,81.776596 73.750679,81.495224 
	C73.704865,81.937172 73.659050,82.379105 73.348732,82.945709 
	C72.956924,82.957512 72.829620,82.844643 72.539154,82.535553 
z"/>
</svg>